#!OML:ASF G:\JayActor3\Patient Classification 1\Patient 1\Session 6\male.ASF
:FULLY-SPECIFIED
:DEGREES
1615
root 5.65429 16.425 -23.9084 533.033 -73.5136 -529.208
lowerback 5.13105 1.09071 4.12466
upperback 0.921763 1.6512 -0.225942
thorax -1.80267 0.792305 -2.65377
lowerneck 14.5073 2.25371 0.887146
upperneck -18.1239 3.84085 3.35169
head -8.06251 1.35167 0.548777
rclavicle -3.09856e-014 1.2921e-014
rhumerus -18.8251 19.3937 -58.5959
rradius 118.899
rwrist 8.47667
rhand -52.5569 -4.33678
rfingers 7.12502
rthumb -25.0413 -32.7153
lclavicle -3.09856e-014 1.2921e-014
lhumerus -4.57219 -23.3682 79.5958
lradius 126.792
lwrist 17.7901
lhand -49.2514 -19.5222
lfingers 7.12502
lthumb -21.8704 9.26178
rfemur -17.9449 -4.50749 28.6044
rtibia 35.1135
rfoot -26.1572 -13.5984
rtoes 12.9058
lfemur -14.9545 4.46795 -14.8927
ltibia 27.2452
lfoot -12.5305 -12.087
ltoes 9.35825
1616
root 5.65921 16.4233 -23.9239 532.903 -73.7187 -529.134
lowerback 5.12412 1.10361 4.11748
upperback 0.923282 1.66742 -0.24412
thorax -1.79566 0.800663 -2.66928
lowerneck 14.4876 2.25388 0.909658
upperneck -18.043 3.84297 3.34299
head -8.03142 1.35503 0.542162
rclavicle -1.60022e-014 -1.19271e-015
rhumerus -19.0094 19.4038 -58.8159
rradius 118.75
rwrist 8.54574
rhand -52.6938 -4.12453
rfingers 7.12502
rthumb -25.1724 -32.4847
lclavicle -1.60022e-014 -1.19271e-015
lhumerus -4.90339 -23.2628 79.5586
lradius 126.658
lwrist 17.8354
lhand -49.2404 -19.7029
lfingers 7.12502
lthumb -21.8599 9.0823
rfemur -17.876 -4.67985 28.6426
rtibia 35.0962
rfoot -26.2105 -13.5897
rtoes 12.9742
lfemur -14.9567 4.35402 -14.846
ltibia 27.2851
lfoot -12.5104 -12.1647
ltoes 9.31785
1617
root 5.66399 16.4215 -23.9396 532.748 -73.9226 -529.035
lowerback 5.11251 1.117 4.11673
upperback 0.927344 1.68437 -0.260303
thorax -1.78322 0.809498 -2.68622
lowerneck 14.4717 2.25402 0.929242
upperneck -17.966 3.84499 3.33651
head -8.00244 1.35818 0.53674
rclavicle 4.69629e-015 -6.36111e-015
rhumerus -19.1945 19.4058 -59.0336
rradius 118.605
rwrist 8.60896
rhand -52.8037 -3.93074
rfingers 7.12502
rthumb -25.2777 -32.276
lclavicle 4.69629e-015 -6.36111e-015
lhumerus -5.23501 -23.1724 79.5206
lradius 126.534
lwrist 17.9018
lhand -49.2297 -19.8536
lfingers 7.12502
lthumb -21.8496 8.93287
rfemur -17.8043 -4.85938 28.6875
rtibia 35.0763
rfoot -26.264 -13.5773
rtoes 13.0475
lfemur -14.9584 4.23649 -14.7926
ltibia 27.3277
lfoot -12.4943 -12.2367
ltoes 9.283
1618
root 5.66874 16.4195 -23.9554 532.553 -74.1223 -528.895
lowerback 5.09838 1.13046 4.12487
upperback 0.933912 1.70174 -0.2716
thorax -1.76664 0.818603 -2.70302
lowerneck 14.4502 2.25665 0.950718
upperneck -17.886 3.84947 3.32427
head -7.97136 1.36308 0.528905
rclavicle -2.35063e-014 1.98785e-015
rhumerus -19.378 19.4035 -59.2489
rradius 118.463
rwrist 8.66906
rhand -52.8832 -3.76201
rfingers 7.12502
rthumb -25.3539 -32.0965
lclavicle -2.35063e-014 1.98785e-015
lhumerus -5.5668 -23.0917 79.482
lradius 126.415
lwrist 17.992
lhand -49.2236 -19.9128
lfingers 7.12502
lthumb -21.8437 8.87431
rfemur -17.7283 -5.03454 28.7452
rtibia 35.0513
rfoot -26.3187 -13.5664
rtoes 13.1221
lfemur -14.9611 4.11327 -14.727
ltibia 27.3762
lfoot -12.4859 -12.2969
ltoes 9.24078
1619
root 5.67343 16.4175 -23.9713 532.307 -74.3159 -528.705
lowerback 5.0803 1.14326 4.14198
upperback 0.943776 1.71848 -0.276917
thorax -1.74439 0.827499 -2.71847
lowerneck 14.4208 2.26483 0.977972
upperneck -17.8013 3.86064 3.30252
head -7.93709 1.37193 0.516345
rclavicle -3.03147e-015 -1.13307e-014
rhumerus -19.5534 19.4002 -59.4631
rradius 118.319
rwrist 8.73046
rhand -52.9289 -3.63352
rfingers 7.12502
rthumb -25.3976 -31.9618
lclavicle -3.03147e-015 -1.13307e-014
lhumerus -5.89507 -23.0056 79.4398
lradius 126.292
lwrist 18.0899
lhand -49.2398 -19.8784
lfingers 7.12502
lthumb -21.8593 8.90693
rfemur -17.6475 -5.20479 28.8177
rtibia 35.0218
rfoot -26.3728 -13.5574
rtoes 13.2068
lfemur -14.9636 3.98528 -14.6463
ltibia 27.4287
lfoot -12.4814 -12.3479
ltoes 9.20616
1620
root 5.67806 16.4154 -23.9874 532.027 -74.5036 -528.483
lowerback 5.06887 1.15653 4.16532
upperback 0.950405 1.73663 -0.279644
thorax -1.72897 0.836874 -2.73504
lowerneck 14.3868 2.27667 1.01347
upperneck -17.7061 3.87666 3.27232
head -7.89826 1.38376 0.499198
rclavicle 3.13086e-015 1.41137e-014
rhumerus -19.7341 19.3991 -59.6812
rradius 118.172
rwrist 8.79727
rhand -52.9425 -3.57009
rfingers 7.12502
rthumb -25.4106 -31.8965
lclavicle 3.13086e-015 1.41137e-014
lhumerus -6.22299 -22.9078 79.3942
lradius 126.156
lwrist 18.1771
lhand -49.264 -19.7905
lfingers 7.12502
lthumb -21.8825 8.99208
rfemur -17.5612 -5.36694 28.8991
rtibia 34.988
rfoot -26.4254 -13.5556
rtoes 13.2787
lfemur -14.9641 3.85229 -14.5556
ltibia 27.4847
lfoot -12.4781 -12.3918
ltoes 9.18209
1621
root 5.68254 16.4134 -24.0036 531.758 -74.6919 -528.277
lowerback 5.06364 1.16859 4.18347
upperback 0.956473 1.75314 -0.284882
thorax -1.71778 0.845353 -2.75137
lowerneck 14.3444 2.29405 1.04953
upperneck -17.5998 3.90032 3.24447
head -7.8544 1.39932 0.482061
rclavicle -4.87768e-014 7.35503e-015
rhumerus -19.9166 19.3994 -59.9064
rradius 118.018
rwrist 8.86708
rhand -52.9742 -3.48075
rfingers 7.12502
rthumb -25.4411 -31.8029
lclavicle -4.87768e-014 7.35503e-015
lhumerus -6.54396 -22.7904 79.3399
lradius 125.998
lwrist 18.2372
lhand -49.2898 -19.7134
lfingers 7.12502
lthumb -21.9073 9.06634
rfemur -17.4691 -5.53003 28.9737
rtibia 34.953
rfoot -26.4749 -13.5568
rtoes 13.3344
lfemur -14.9582 3.71251 -14.471
ltibia 27.5409
lfoot -12.4766 -12.4304
ltoes 9.16356
1622
root 5.68725 16.4113 -24.0201 531.471 -74.8706 -528.053
lowerback 5.05995 1.18198 4.20386
upperback 0.961371 1.77166 -0.289196
thorax -1.70845 0.854771 -2.76818
lowerneck 14.2977 2.31674 1.08591
upperneck -17.4864 3.93153 3.21948
head -7.80763 1.41839 0.465113
rclavicle 2.7482e-014 -2.18663e-015
rhumerus -20.0959 19.4037 -60.1371
rradius 117.856
rwrist 8.94147
rhand -53.0006 -3.3889
rfingers 7.12502
rthumb -25.4663 -31.7074
lclavicle 2.7482e-014 -2.18663e-015
lhumerus -6.85623 -22.6519 79.2772
lradius 125.818
lwrist 18.273
lhand -49.3096 -19.662
lfingers 7.12502
lthumb -21.9263 9.11547
rfemur -17.3785 -5.67128 29.0557
rtibia 34.9176
rfoot -26.5254 -13.5741
rtoes 13.3803
lfemur -14.9519 3.56452 -14.379
ltibia 27.5966
lfoot -12.4772 -12.456
ltoes 9.13858
1623
root 5.69192 16.4093 -24.0366 531.2 -75.0497 -527.848
lowerback 5.05977 1.19549 4.21912
upperback 0.963591 1.79026 -0.297413
thorax -1.70386 0.864129 -2.78628
lowerneck 14.2537 2.34596 1.11954
upperneck -17.3715 3.97283 3.20361
head -7.76128 1.44154 0.450568
rclavicle 3.33958e-014 -1.35174e-014
rhumerus -20.2767 19.412 -60.3754
rradius 117.687
rwrist 9.02657
rhand -53.043 -3.33836
rfingers 7.12502
rthumb -25.507 -31.6511
lclavicle 3.33958e-014 -1.35174e-014
lhumerus -7.16816 -22.4967 79.2064
lradius 125.618
lwrist 18.2714
lhand -49.307 -19.6712
lfingers 7.12502
lthumb -21.9238 9.10653
rfemur -17.2875 -5.81847 29.1302
rtibia 34.8839
rfoot -26.5712 -13.5912
rtoes 13.4072
lfemur -14.9426 3.41459 -14.2942
ltibia 27.6515
lfoot -12.4782 -12.4811
ltoes 9.11008
